<svg xmlns="http://www.w3.org/2000/svg" viewBox="0 0 44.32 44.54"><defs><style>.cls-1{fill:#14bc08;fill-rule:evenodd;}</style></defs><title>iconWatsVerde</title><g id="Camada_2" data-name="Camada 2"><g id="home"><g id="watsappButton"><g id="watsappButton-2" data-name="watsappButton"><path class="cls-1" d="M37.87,6.47A22.08,22.08,0,0,0,3.13,33.1L0,44.54l11.7-3.07a22,22,0,0,0,10.55,2.68h0A22.08,22.08,0,0,0,37.87,6.47Zm-15.62,34h0a18.35,18.35,0,0,1-9.34-2.56l-.67-.4L5.3,39.29l1.85-6.77-.43-.69a18.34,18.34,0,1,1,15.53,8.6ZM32.32,26.69c-.56-.28-3.27-1.61-3.77-1.8s-.88-.27-1.24.28S25.88,27,25.56,27.33s-.64.42-1.19.14a15.1,15.1,0,0,1-4.44-2.74,16.65,16.65,0,0,1-3.07-3.82c-.32-.55,0-.82.25-1.12a15.37,15.37,0,0,0,1.37-1.89,1,1,0,0,0,0-1c-.14-.28-1.24-3-1.7-4.1s-.9-.93-1.24-.94-.69,0-1.06,0a2,2,0,0,0-1.47.69A6.15,6.15,0,0,0,11,17.17c0,2.71,2,5.33,2.25,5.7s3.89,5.94,9.42,8.33a32.22,32.22,0,0,0,3.15,1.16,7.57,7.57,0,0,0,3.47.22c1.06-.16,3.26-1.34,3.72-2.63a4.57,4.57,0,0,0,.32-2.62C33.23,27.1,32.87,27,32.32,26.69Z"/></g></g></g></g></svg>