<svg xmlns="http://www.w3.org/2000/svg" viewBox="0 0 30.06 22.9"><defs><style>.cls-1{fill:#14bc08;}</style></defs><title>Ativo 1</title><g id="Camada_2" data-name="Camada 2"><g id="Camada_1-2" data-name="Camada 1"><g id="Camada_2-2" data-name="Camada 2"><g id="header"><g id="navTop"><path class="cls-1" d="M27.42,0H2.64A2.6,2.6,0,0,0,1.51.26L15,13.73l3-2.9h0L28.55.27A2.61,2.61,0,0,0,27.42,0Z"/><path class="cls-1" d="M29.79,1.51l-9.93,9.94,9.93,9.94a2.49,2.49,0,0,0,.27-1.14V2.64A2.47,2.47,0,0,0,29.79,1.51Z"/><path class="cls-1" d="M.26,1.51A2.6,2.6,0,0,0,0,2.64V20.25a2.68,2.68,0,0,0,.26,1.14l9.94-9.94Z"/><path class="cls-1" d="M18.61,12.69l-3,2.9a.87.87,0,0,1-1.24,0l-2.9-2.9-10,9.94a2.47,2.47,0,0,0,1.13.27H27.42a2.61,2.61,0,0,0,1.13-.27Z"/></g></g></g></g></g></svg>