<svg xmlns="http://www.w3.org/2000/svg" viewBox="0 0 22.75 22.9"><defs><style>.cls-1{fill:#14bc08;fill-rule:evenodd;}</style></defs><title>Ativo 1</title><g id="Camada_2" data-name="Camada 2"><g id="Camada_1-2" data-name="Camada 1"><g id="Camada_2-2" data-name="Camada 2"><g id="header"><g id="navTop"><path class="cls-1" d="M19.47,3.33A11.34,11.34,0,0,0,1.61,17L0,22.9l6-1.58a11.32,11.32,0,0,0,5.43,1.38h0a11.35,11.35,0,0,0,8-19.37Zm-8,17.45h0a9.31,9.31,0,0,1-4.8-1.31l-.35-.21-3.57.94,1-3.48-.23-.36a9.43,9.43,0,1,1,8,4.42Zm5.17-7.06c-.28-.14-1.67-.83-1.93-.92s-.45-.14-.64.14-.73.92-.9,1.11-.33.21-.61.07a7.54,7.54,0,0,1-2.28-1.4,8.5,8.5,0,0,1-1.58-2c-.17-.28,0-.42.12-.58a7.2,7.2,0,0,0,.71-1,.48.48,0,0,0,0-.49c-.07-.14-.64-1.54-.87-2.11S8.14,6.12,8,6.12H7.42a1.06,1.06,0,0,0-.75.35,3.19,3.19,0,0,0-1,2.37,5.49,5.49,0,0,0,1.15,2.93A12.64,12.64,0,0,0,11.68,16c.67.29,1.2.46,1.61.6a4,4,0,0,0,1.79.11A2.93,2.93,0,0,0,17,15.4a2.31,2.31,0,0,0,.17-1.35c-.08-.12-.27-.19-.56-.33Z"/></g></g></g></g></g></svg>