<svg xmlns="http://www.w3.org/2000/svg" viewBox="0 0 30.06 22.9"><defs><style>.cls-1{fill:#fff;}</style></defs><title>iconCarta_2</title><g id="Camada_2" data-name="Camada 2"><g id="header"><g id="navTop"><path class="cls-1" d="M27.42,0H2.64A2.68,2.68,0,0,0,1.51.26L15,13.73l3-2.9h0L28.55.27A2.58,2.58,0,0,0,27.42,0Z"/><path class="cls-1" d="M29.79,1.51l-9.93,9.94,9.93,9.94a2.59,2.59,0,0,0,.27-1.14V2.64A2.54,2.54,0,0,0,29.79,1.51Z"/><path class="cls-1" d="M.26,1.51A2.68,2.68,0,0,0,0,2.64V20.25a2.72,2.72,0,0,0,.26,1.14l9.94-9.94Z"/><path class="cls-1" d="M18.61,12.69l-3,2.9a.83.83,0,0,1-.62.26.85.85,0,0,1-.62-.26l-2.9-2.9L1.51,22.63a2.54,2.54,0,0,0,1.13.27H27.42a2.58,2.58,0,0,0,1.13-.27Z"/></g></g></g></svg>