<svg xmlns="http://www.w3.org/2000/svg" viewBox="0 0 22.79 22.9"><defs><style>.cls-1{fill:#fff;fill-rule:evenodd}</style></defs><title>iconContato</title><g id="Camada_2" data-name="Camada 2"><g id="header"><g id="navTop"><path class="cls-1" d="M19.47,3.33a11.34,11.34,0,0,0-19.37,8A11.28,11.28,0,0,0,1.61,17L0,22.9l6-1.58a11.41,11.41,0,0,0,5.43,1.38h0a11.35,11.35,0,0,0,8-19.37Zm-8,17.45h0a9.38,9.38,0,0,1-4.8-1.31l-.35-.21-3.57.94,1-3.48-.23-.36a9.43,9.43,0,1,1,8,4.42Zm5.17-7.06c-.28-.14-1.67-.83-1.93-.92s-.45-.14-.64.14-.73.92-.9,1.11-.33.21-.61.07a7.63,7.63,0,0,1-2.28-1.4,8.54,8.54,0,0,1-1.58-2c-.17-.28,0-.42.12-.58a7.16,7.16,0,0,0,.71-1,.5.5,0,0,0,0-.49c-.07-.14-.64-1.54-.87-2.11S8.14,6.12,8,6.12H7.42a1.05,1.05,0,0,0-.75.35,3.18,3.18,0,0,0-1,2.37,5.55,5.55,0,0,0,1.15,2.93A12.71,12.71,0,0,0,11.68,16c.67.29,1.2.46,1.61.6a4,4,0,0,0,1.79.11A2.94,2.94,0,0,0,17,15.4a2.37,2.37,0,0,0,.17-1.35C17.09,13.93,16.9,13.86,16.61,13.72Z"/></g></g></g></svg>