<svg xmlns="http://www.w3.org/2000/svg" viewBox="0 0 23.62 23.62"><defs><style>.cls-1{fill:#fff;}.cls-2{fill:#f1f1f1;}</style></defs><title>IconEuro</title><g id="Camada_2" data-name="Camada 2"><g id="header"><g id="navTop"><path class="cls-1" d="M11.81.38A11.45,11.45,0,1,0,23.26,11.82,11.46,11.46,0,0,0,11.81.38Zm0,21.46a10,10,0,1,1,10-10A10,10,0,0,1,11.81,21.84Z"/><path class="cls-2" d="M11.81,0a12,12,0,0,0-11,7.62A11.82,11.82,0,0,0,17.86,22,12,12,0,0,0,23.44,9.69,12,12,0,0,0,11.81,0a.38.38,0,0,0,0,.75A11.2,11.2,0,0,1,22.24,8.11,11.07,11.07,0,0,1,6.14,21.33,11.19,11.19,0,0,1,.93,9.73a11.22,11.22,0,0,1,10.88-9A.38.38,0,0,0,11.81,0Z"/><path class="cls-2" d="M11.81,21.47a9.76,9.76,0,0,1-9.08-6.41,9.64,9.64,0,0,1,14-11.52,9.74,9.74,0,0,1,4.53,10.1,9.77,9.77,0,0,1-9.47,7.83.38.38,0,0,0,0,.75,10.53,10.53,0,0,0,9.71-6.71A10.39,10.39,0,0,0,6.49,2.9a10.5,10.5,0,0,0-4.9,10.81,10.53,10.53,0,0,0,10.22,8.51A.38.38,0,0,0,11.81,21.47Z"/><path class="cls-1" d="M12.53,17.42A4.91,4.91,0,0,1,8,13.93l0-.09H6.8a.59.59,0,0,1-.59-.59.6.6,0,0,1,.59-.59h.92l0-.3a4.73,4.73,0,0,1,0-.54,4.73,4.73,0,0,1,0-.53l0-.31H6.8a.59.59,0,0,1-.59-.59A.6.6,0,0,1,6.8,9.8H8l0-.08a4.92,4.92,0,0,1,4.52-3.5A4.41,4.41,0,0,1,15,7a.6.6,0,0,1,.15.82.59.59,0,0,1-.49.26A.57.57,0,0,1,14.34,8a3.25,3.25,0,0,0-1.81-.57,3.66,3.66,0,0,0-3.2,2.22l-.08.18h3.28a.6.6,0,0,1,.59.59.59.59,0,0,1-.59.59H8.9l0,.11a5.83,5.83,0,0,0-.06.73,6,6,0,0,0,.06.74l0,.1h2.91a.59.59,0,0,1,.59.59.58.58,0,0,1-.59.59H9.25l.08.18a3.66,3.66,0,0,0,3.2,2.22,3.15,3.15,0,0,0,1.81-.57.56.56,0,0,1,.33-.1A.59.59,0,0,1,15,16.65,4.42,4.42,0,0,1,12.53,17.42Z"/><path class="cls-2" d="M12.53,6.35a4.26,4.26,0,0,1,2.4.75.44.44,0,0,1,.2.3.48.48,0,0,1-.07.35.46.46,0,0,1-.39.2.5.5,0,0,1-.26-.08,3.32,3.32,0,0,0-1.88-.59A3.79,3.79,0,0,0,9.22,9.57l-.17.36h3.48a.47.47,0,0,1,0,.93H8.79l0,.21a5.56,5.56,0,0,0-.06.75,5.56,5.56,0,0,0,.06.75l0,.22h3a.47.47,0,1,1,0,.93H9.05l.17.36a3.79,3.79,0,0,0,3.31,2.29,3.25,3.25,0,0,0,1.88-.6.5.5,0,0,1,.26-.08.47.47,0,0,1,.39.21.45.45,0,0,1,.07.34.42.42,0,0,1-.2.3,4.19,4.19,0,0,1-2.4.76,4.81,4.81,0,0,1-4.41-3.41l0-.17H6.8a.47.47,0,0,1,0-.93H7.86l0-.28,0-.17a4.38,4.38,0,0,1,0-.52,4.38,4.38,0,0,1,0-.51l0-.18,0-.27H6.8a.47.47,0,0,1,0-.93H8.07l0-.17a4.81,4.81,0,0,1,4.41-3.41m0-.25A5.06,5.06,0,0,0,7.89,9.68H6.8a.72.72,0,0,0,0,1.43h.78a5.67,5.67,0,0,0-.06.71,5.67,5.67,0,0,0,.06.72H6.8A.72.72,0,0,0,6.8,14H7.89a5.07,5.07,0,0,0,4.64,3.58,4.55,4.55,0,0,0,2.55-.8.72.72,0,0,0-.41-1.31.66.66,0,0,0-.4.13,3.07,3.07,0,0,1-1.74.55A3.51,3.51,0,0,1,9.45,14h2.36a.72.72,0,1,0,0-1.43H9a4.29,4.29,0,0,1,0-1.43h3.52a.72.72,0,0,0,0-1.43H9.45a3.51,3.51,0,0,1,3.08-2.15,3,3,0,0,1,1.74.55.72.72,0,0,0,1-.19.71.71,0,0,0-.18-1,4.55,4.55,0,0,0-2.55-.8Z"/></g></g></g></svg>