<svg xmlns="http://www.w3.org/2000/svg" viewBox="0 0 211.01 188.95"><defs><style>.cls-1{fill:#14bc08;}</style></defs><title>Ativo 1</title><g id="Camada_2" data-name="Camada 2"><g id="Capa_1" data-name="Capa 1"><path class="cls-1" d="M90.4,128.09,111,115.34l-7.56-12.19a52.33,52.33,0,0,0,9.65-13.49l14,3.27,5.5-23.58-14-3.27a51.63,51.63,0,0,0-2.68-16.35l12.22-7.58L115.35,21.59l-12.22,7.58a51.41,51.41,0,0,0-13.46-9.65L93,5.52,69.38,0,66.11,14a52,52,0,0,0-16.37,2.67L42.17,4.45,21.61,17.21l7.55,12.17a52.33,52.33,0,0,0-9.65,13.49l-14-3.28L0,63.17l14,3.29a51.46,51.46,0,0,0,2.68,16.33L4.45,90.37,17.2,111l12.24-7.58A51.94,51.94,0,0,0,42.88,113L39.6,127l23.58,5.52,3.27-14a52.35,52.35,0,0,0,16.38-2.67ZM38.92,59.86A28.09,28.09,0,1,1,42.4,81.08,28,28,0,0,1,38.92,59.86Zm133.3,83.86,5.33-3.3L168,125l-5.35,3.31a30.48,30.48,0,0,0-4.92-3.55l1.44-6.11-17.68-4.15-1.42,6.06a31.08,31.08,0,0,0-6,1l-3.28-5.28-15.42,9.58,3.23,5.19a31.81,31.81,0,0,0-3.54,5l-6-1.4-4.15,17.68,6.1,1.42a30.54,30.54,0,0,0,1,6L106.6,163l9.57,15.43,5.31-3.3a30.57,30.57,0,0,0,4.94,3.55l-1.43,6.1L142.67,189l1.41-6a31.84,31.84,0,0,0,6-1l3.28,5.27,15.42-9.57-3.22-5.2a30.68,30.68,0,0,0,3.53-5l6,1.4,4.15-17.68-6.11-1.42A29.75,29.75,0,0,0,172.22,143.72Zm-17.3,11a13.26,13.26,0,0,1-15.85,9.83,13.2,13.2,0,0,1,3-26.05,13.25,13.25,0,0,1,12.86,16.22Zm45-70.1,8.29,1.93L211,74.78l-8.26-1.93A27.59,27.59,0,0,0,201.13,63l7.22-4.49L202,48.26l-7.21,4.48a28.06,28.06,0,0,0-8.09-5.81l1.94-8.26-11.79-2.76-1.92,8.24-.45,0a28.36,28.36,0,0,0-9.42,1.6l-4.43-7.16L150.3,44.94l4.48,7.24A27.89,27.89,0,0,0,149,60.26l-8.29-1.94-2.76,11.79L146.2,72a27.8,27.8,0,0,0,1.61,9.82l-7.21,4.48L147,96.62l7.21-4.47a28.11,28.11,0,0,0,8.08,5.8l-1.92,8.27L172.13,109l1.94-8.26c.15,0,.3,0,.44,0a28.46,28.46,0,0,0,9.42-1.61l4.44,7.17,10.28-6.39-4.48-7.23A28,28,0,0,0,200,84.63ZM158.69,68.75a16.2,16.2,0,1,1,2,12.22A16.15,16.15,0,0,1,158.69,68.75Z"/></g></g></svg>