<svg xmlns="http://www.w3.org/2000/svg" viewBox="0 0 512 397.72"><defs><style>.cls-1{fill:#14bc08;}</style></defs><title>friends</title><g id="Camada_2" data-name="Camada 2"><g id="Capa_1" data-name="Capa 1"><path class="cls-1" d="M155.33,0C103.8,0,61.87,44.45,61.87,99.09s41.93,99.08,93.46,99.08,93.45-44.45,93.45-99.08S206.86,0,155.33,0Z"/><path class="cls-1" d="M367.8,14.18h-.64c-21.62.18-41.82,9.31-56.88,25.71a87.08,87.08,0,0,0-22.64,59.86,87,87,0,0,0,23.63,59.47c15.17,16,35.26,24.77,56.65,24.77h.65c21.62-.18,41.82-9.31,56.87-25.71a87,87,0,0,0,22.65-59.86C447.7,51.83,411.75,14.18,367.8,14.18Z"/><path class="cls-1" d="M371.74,200.22H364a139.75,139.75,0,0,0-94,36.26,180.43,180.43,0,0,1,70.45,133.86H512V340.47C512,263.14,449.08,200.22,371.74,200.22Z"/><path class="cls-1" d="M310.35,370.34A150.63,150.63,0,0,0,160,229.18h-9.34A150.66,150.66,0,0,0,0,379.84v17.88H310.65V379.84Q310.65,375.05,310.35,370.34Z"/></g></g></svg>