<?xml version="1.0" encoding="utf-8"?>
<!-- Generator: Adobe Illustrator 24.0.1, SVG Export Plug-In . SVG Version: 6.00 Build 0)  -->
<svg version="1.1" id="Camada_1" xmlns="http://www.w3.org/2000/svg" xmlns:xlink="http://www.w3.org/1999/xlink" x="0px" y="0px"
	 viewBox="0 0 22 22" style="enable-background:new 0 0 22 22;" xml:space="preserve">
<style type="text/css">
	.st0{fill:#14BC08;}
</style>
<title>iconInsta_1</title>
<g id="Camada_2_1_">
	<g id="header">
		<g id="navTop">
			<g id="Camada_2-2">
				<g id="Icones">
					<g id="Instagram">
						<path class="st0" d="M13.1,11c0,1.2-0.9,2.1-2.1,2.1S8.9,12.2,8.9,11S9.8,8.9,11,8.9l0,0C12.2,8.9,13.1,9.8,13.1,11
							C13.1,11,13.1,11,13.1,11z"/>
						<path class="st0" d="M15.9,7.3c-0.2-0.5-0.7-1-1.2-1.2c-0.4-0.1-0.8-0.2-1.2-0.2H8.4C8,5.9,7.7,5.9,7.3,6.1
							c-0.5,0.2-1,0.7-1.2,1.2C5.9,7.6,5.9,8,5.9,8.4v5.1c0,0.4,0.1,0.8,0.2,1.2c0.2,0.5,0.7,1,1.2,1.2c0.4,0.1,0.8,0.2,1.2,0.2h5.1
							c0.4,0,0.8-0.1,1.2-0.2c0.5-0.2,1-0.7,1.2-1.2c0.1-0.4,0.2-0.8,0.2-1.2V8.4C16.1,8,16.1,7.6,15.9,7.3z M11,14.3
							c-1.8,0-3.2-1.5-3.2-3.3s1.5-3.2,3.3-3.2s3.2,1.5,3.2,3.3c0,1.8-1.4,3.2-3.2,3.2H11z M14.4,8.4c-0.4,0-0.8-0.3-0.8-0.8
							c0-0.4,0.3-0.8,0.8-0.8c0,0,0,0,0,0c0.4,0,0.8,0.3,0.8,0.7c0,0,0,0,0,0l0,0C15.1,8.1,14.8,8.4,14.4,8.4L14.4,8.4z"/>
						<path class="st0" d="M11,0C4.9,0,0,4.9,0,11s4.9,11,11,11s11-4.9,11-11S17.1,0,11,0z M17.3,13.6c0,0.5-0.1,1-0.3,1.5
							c-0.3,0.8-1,1.5-1.8,1.9c-0.5,0.2-1,0.3-1.5,0.3H8.4c-0.5,0-1-0.1-1.5-0.3C6,16.7,5.3,16,5,15.1c-0.2-0.5-0.3-1-0.3-1.5V8.4
							c0-0.5,0.1-1,0.3-1.5C5.3,6,6,5.3,6.9,5c0.5-0.2,1-0.3,1.5-0.3h5.2c0.5,0,1,0.1,1.5,0.3C16,5.3,16.7,6,17,6.9
							c0.2,0.5,0.3,1,0.3,1.5V11C17.3,12.7,17.3,12.9,17.3,13.6z"/>
					</g>
				</g>
			</g>
		</g>
	</g>
</g>
</svg>
