<?xml version="1.0" encoding="utf-8"?>
<!-- Generator: Adobe Illustrator 24.0.1, SVG Export Plug-In . SVG Version: 6.00 Build 0)  -->
<svg version="1.1" id="Camada_1" xmlns="http://www.w3.org/2000/svg" xmlns:xlink="http://www.w3.org/1999/xlink" x="0px" y="0px"
	 viewBox="0 0 22 22" style="enable-background:new 0 0 22 22;" xml:space="preserve">
<style type="text/css">
	.st0{fill:#14BC08;}
</style>
<title>iconLinked_1</title>
<g id="Camada_2_1_">
	<g id="header">
		<g id="navTop">
			<g id="Camada_2-2">
				<g id="Icones">
					<path class="st0" d="M11,0C4.9,0,0,4.9,0,11s4.9,11,11,11s11-4.9,11-11S17.1,0,11,0z M7.4,16.5H5.2V8.8h2.2V16.5z M6.5,7.7
						L6.5,7.7C5.7,7.8,5.1,7.2,5,6.4c0,0,0-0.1,0-0.1c0-0.8,0.6-1.4,1.4-1.4h0.1c0.8,0,1.4,0.6,1.4,1.4C8,7,7.4,7.6,6.7,7.7H6.5z
						 M17.3,16.5h-2.2v-4.2c-0.3-1.1-0.7-1.8-1.6-1.8c-0.6,0-1.2,0.4-1.4,1l-0.3,0.7v4.4H9.1V8.8h2.7v1.1c0.5-0.8,1.4-1.3,2.4-1.3
						c1.8,0,3.1,1.1,3.1,3.5V16.5z"/>
				</g>
			</g>
		</g>
	</g>
</g>
</svg>
