<?xml version="1.0" encoding="utf-8"?>
<!-- Generator: Adobe Illustrator 24.0.1, SVG Export Plug-In . SVG Version: 6.00 Build 0)  -->
<svg version="1.1" id="Camada_1" xmlns="http://www.w3.org/2000/svg" xmlns:xlink="http://www.w3.org/1999/xlink" x="0px" y="0px"
	 viewBox="0 0 22 22" style="enable-background:new 0 0 22 22;" xml:space="preserve">
<style type="text/css">
	.st0{fill:#14BC08;}
</style>
<title>iconFace_1</title>
<g id="Camada_2_1_">
	<g id="header">
		<g id="navTop">
			<g id="Camada_2-2">
				<g id="Icones">
					<g id="Facebook">
						<path class="st0" d="M22,11c0-6.1-4.9-11-11-11S0,4.9,0,11s4.9,11,11,11h0.6v-8.8H9.4V9.9h2.2v-2c-0.2-1.8,1.1-3.4,2.9-3.6
							c0,0,0,0,0,0c0.2,0,0.3,0,0.5,0c0.7,0,1.4,0.1,2.1,0.2v3.3h-1.8c-1.1-0.1-1.6,1.2-1.6,1.2v1h2.9l-0.4,3.3h-2.6v8.4
							C18.6,20.3,22,16,22,11z"/>
					</g>
				</g>
			</g>
		</g>
	</g>
</g>
</svg>
