<?xml version="1.0" encoding="utf-8"?>
<svg xmlns="http://www.w3.org/2000/svg" xmlns:xlink="http://www.w3.org/1999/xlink" style="margin: auto; background: none; display: block; shape-rendering: auto;" width="124px" height="124px" viewBox="0 0 100 100" preserveAspectRatio="xMidYMid">
<g transform="rotate(0 50 50)">
  <rect x="48.5" y="22" rx="1.5" ry="3.84" width="3" height="16" fill="#14bc08">
    <animate attributeName="opacity" values="1;0" keyTimes="0;1" dur="0.7575757575757576s" begin="-0.7231404958677685s" repeatCount="indefinite"></animate>
  </rect>
</g><g transform="rotate(16.363636363636363 50 50)">
  <rect x="48.5" y="22" rx="1.5" ry="3.84" width="3" height="16" fill="#14bc08">
    <animate attributeName="opacity" values="1;0" keyTimes="0;1" dur="0.7575757575757576s" begin="-0.6887052341597796s" repeatCount="indefinite"></animate>
  </rect>
</g><g transform="rotate(32.72727272727273 50 50)">
  <rect x="48.5" y="22" rx="1.5" ry="3.84" width="3" height="16" fill="#14bc08">
    <animate attributeName="opacity" values="1;0" keyTimes="0;1" dur="0.7575757575757576s" begin="-0.6542699724517905s" repeatCount="indefinite"></animate>
  </rect>
</g><g transform="rotate(49.09090909090909 50 50)">
  <rect x="48.5" y="22" rx="1.5" ry="3.84" width="3" height="16" fill="#14bc08">
    <animate attributeName="opacity" values="1;0" keyTimes="0;1" dur="0.7575757575757576s" begin="-0.6198347107438016s" repeatCount="indefinite"></animate>
  </rect>
</g><g transform="rotate(65.45454545454545 50 50)">
  <rect x="48.5" y="22" rx="1.5" ry="3.84" width="3" height="16" fill="#14bc08">
    <animate attributeName="opacity" values="1;0" keyTimes="0;1" dur="0.7575757575757576s" begin="-0.5853994490358126s" repeatCount="indefinite"></animate>
  </rect>
</g><g transform="rotate(81.81818181818181 50 50)">
  <rect x="48.5" y="22" rx="1.5" ry="3.84" width="3" height="16" fill="#14bc08">
    <animate attributeName="opacity" values="1;0" keyTimes="0;1" dur="0.7575757575757576s" begin="-0.5509641873278236s" repeatCount="indefinite"></animate>
  </rect>
</g><g transform="rotate(98.18181818181819 50 50)">
  <rect x="48.5" y="22" rx="1.5" ry="3.84" width="3" height="16" fill="#14bc08">
    <animate attributeName="opacity" values="1;0" keyTimes="0;1" dur="0.7575757575757576s" begin="-0.5165289256198347s" repeatCount="indefinite"></animate>
  </rect>
</g><g transform="rotate(114.54545454545455 50 50)">
  <rect x="48.5" y="22" rx="1.5" ry="3.84" width="3" height="16" fill="#14bc08">
    <animate attributeName="opacity" values="1;0" keyTimes="0;1" dur="0.7575757575757576s" begin="-0.48209366391184566s" repeatCount="indefinite"></animate>
  </rect>
</g><g transform="rotate(130.9090909090909 50 50)">
  <rect x="48.5" y="22" rx="1.5" ry="3.84" width="3" height="16" fill="#14bc08">
    <animate attributeName="opacity" values="1;0" keyTimes="0;1" dur="0.7575757575757576s" begin="-0.4476584022038567s" repeatCount="indefinite"></animate>
  </rect>
</g><g transform="rotate(147.27272727272728 50 50)">
  <rect x="48.5" y="22" rx="1.5" ry="3.84" width="3" height="16" fill="#14bc08">
    <animate attributeName="opacity" values="1;0" keyTimes="0;1" dur="0.7575757575757576s" begin="-0.4132231404958677s" repeatCount="indefinite"></animate>
  </rect>
</g><g transform="rotate(163.63636363636363 50 50)">
  <rect x="48.5" y="22" rx="1.5" ry="3.84" width="3" height="16" fill="#14bc08">
    <animate attributeName="opacity" values="1;0" keyTimes="0;1" dur="0.7575757575757576s" begin="-0.37878787878787873s" repeatCount="indefinite"></animate>
  </rect>
</g><g transform="rotate(180 50 50)">
  <rect x="48.5" y="22" rx="1.5" ry="3.84" width="3" height="16" fill="#14bc08">
    <animate attributeName="opacity" values="1;0" keyTimes="0;1" dur="0.7575757575757576s" begin="-0.3443526170798898s" repeatCount="indefinite"></animate>
  </rect>
</g><g transform="rotate(196.36363636363637 50 50)">
  <rect x="48.5" y="22" rx="1.5" ry="3.84" width="3" height="16" fill="#14bc08">
    <animate attributeName="opacity" values="1;0" keyTimes="0;1" dur="0.7575757575757576s" begin="-0.3099173553719008s" repeatCount="indefinite"></animate>
  </rect>
</g><g transform="rotate(212.72727272727272 50 50)">
  <rect x="48.5" y="22" rx="1.5" ry="3.84" width="3" height="16" fill="#14bc08">
    <animate attributeName="opacity" values="1;0" keyTimes="0;1" dur="0.7575757575757576s" begin="-0.2754820936639118s" repeatCount="indefinite"></animate>
  </rect>
</g><g transform="rotate(229.0909090909091 50 50)">
  <rect x="48.5" y="22" rx="1.5" ry="3.84" width="3" height="16" fill="#14bc08">
    <animate attributeName="opacity" values="1;0" keyTimes="0;1" dur="0.7575757575757576s" begin="-0.24104683195592283s" repeatCount="indefinite"></animate>
  </rect>
</g><g transform="rotate(245.45454545454547 50 50)">
  <rect x="48.5" y="22" rx="1.5" ry="3.84" width="3" height="16" fill="#14bc08">
    <animate attributeName="opacity" values="1;0" keyTimes="0;1" dur="0.7575757575757576s" begin="-0.20661157024793386s" repeatCount="indefinite"></animate>
  </rect>
</g><g transform="rotate(261.8181818181818 50 50)">
  <rect x="48.5" y="22" rx="1.5" ry="3.84" width="3" height="16" fill="#14bc08">
    <animate attributeName="opacity" values="1;0" keyTimes="0;1" dur="0.7575757575757576s" begin="-0.1721763085399449s" repeatCount="indefinite"></animate>
  </rect>
</g><g transform="rotate(278.1818181818182 50 50)">
  <rect x="48.5" y="22" rx="1.5" ry="3.84" width="3" height="16" fill="#14bc08">
    <animate attributeName="opacity" values="1;0" keyTimes="0;1" dur="0.7575757575757576s" begin="-0.1377410468319559s" repeatCount="indefinite"></animate>
  </rect>
</g><g transform="rotate(294.54545454545456 50 50)">
  <rect x="48.5" y="22" rx="1.5" ry="3.84" width="3" height="16" fill="#14bc08">
    <animate attributeName="opacity" values="1;0" keyTimes="0;1" dur="0.7575757575757576s" begin="-0.10330578512396693s" repeatCount="indefinite"></animate>
  </rect>
</g><g transform="rotate(310.90909090909093 50 50)">
  <rect x="48.5" y="22" rx="1.5" ry="3.84" width="3" height="16" fill="#14bc08">
    <animate attributeName="opacity" values="1;0" keyTimes="0;1" dur="0.7575757575757576s" begin="-0.06887052341597795s" repeatCount="indefinite"></animate>
  </rect>
</g><g transform="rotate(327.27272727272725 50 50)">
  <rect x="48.5" y="22" rx="1.5" ry="3.84" width="3" height="16" fill="#14bc08">
    <animate attributeName="opacity" values="1;0" keyTimes="0;1" dur="0.7575757575757576s" begin="-0.034435261707988975s" repeatCount="indefinite"></animate>
  </rect>
</g><g transform="rotate(343.6363636363636 50 50)">
  <rect x="48.5" y="22" rx="1.5" ry="3.84" width="3" height="16" fill="#14bc08">
    <animate attributeName="opacity" values="1;0" keyTimes="0;1" dur="0.7575757575757576s" begin="0s" repeatCount="indefinite"></animate>
  </rect>
</g>
<!-- [ldio] generated by https://loading.io/ --></svg>