<svg xmlns="http://www.w3.org/2000/svg" viewBox="0 0 22 22"><defs><style>.cls-1{fill:#fff;}</style></defs><title>iconInsta_1</title><g id="Camada_2" data-name="Camada 2"><g id="header"><g id="navTop"><g id="Camada_2-2" data-name="Camada 2"><g id="Icones"><g id="Instagram"><path class="cls-1" d="M13.1,11A2.1,2.1,0,1,1,11,8.9h0A2.09,2.09,0,0,1,13.1,11Z"/><path class="cls-1" d="M15.93,7.27a2.14,2.14,0,0,0-1.2-1.2,4,4,0,0,0-1.18-.21H8.45a4,4,0,0,0-1.18.21,2.14,2.14,0,0,0-1.2,1.2,3.41,3.41,0,0,0-.21,1.18v5.1a3.41,3.41,0,0,0,.21,1.18,2.14,2.14,0,0,0,1.2,1.2,3.41,3.41,0,0,0,1.18.21h5.1a3.41,3.41,0,0,0,1.18-.21,2.27,2.27,0,0,0,1.2-1.2,4,4,0,0,0,.21-1.18V8.45A3.41,3.41,0,0,0,15.93,7.27ZM11,14.3a3.25,3.25,0,1,1,.11,0Zm3.38-5.86a.76.76,0,1,1,0-1.52.75.75,0,0,1,.76.75h0a.76.76,0,0,1-.75.7Z"/><path class="cls-1" d="M11,0A11,11,0,1,0,22,11,11,11,0,0,0,11,0Zm6.28,13.61a4.48,4.48,0,0,1-.3,1.53A3.26,3.26,0,0,1,15.14,17a4.48,4.48,0,0,1-1.53.3H8.39A4.48,4.48,0,0,1,6.86,17,3.15,3.15,0,0,1,5,15.14a4.48,4.48,0,0,1-.3-1.53V8.39A4.48,4.48,0,0,1,5,6.86,3.15,3.15,0,0,1,6.86,5a4.48,4.48,0,0,1,1.53-.3h5.22a4.48,4.48,0,0,1,1.53.3A3.15,3.15,0,0,1,17,6.86a4.48,4.48,0,0,1,.3,1.53V11C17.28,12.72,17.31,12.94,17.28,13.61Z"/></g></g></g></g></g></g></svg>