<svg xmlns="http://www.w3.org/2000/svg" viewBox="0 0 22 22"><defs><style>.cls-1{fill:#fff;}</style></defs><title>iconLinked_1</title><g id="Camada_2" data-name="Camada 2"><g id="header"><g id="navTop"><g id="Camada_2-2" data-name="Camada 2"><g id="Icones"><path class="cls-1" d="M11,0A11,11,0,1,0,22,11,11,11,0,0,0,11,0ZM7.38,16.5H5.18V8.8h2.2ZM6.47,7.7h0A1.38,1.38,0,0,1,5,6.44.66.66,0,0,1,5,6.3a1.4,1.4,0,0,1,1.4-1.39h.12A1.4,1.4,0,0,1,6.72,7.7Zm10.81,8.8h-2.2V12.32c-.3-1.1-.68-1.83-1.65-1.83a1.46,1.46,0,0,0-1.37,1l-.28.66v4.4H9.1V8.83h2.68V9.9a2.65,2.65,0,0,1,2.41-1.28c1.76,0,3.09,1.1,3.09,3.47Z"/></g></g></g></g></g></svg>