<svg xmlns="http://www.w3.org/2000/svg" viewBox="0 0 22 22"><defs><style>.cls-1{fill:#fff;}</style></defs><title>iconWats_1</title><g id="Camada_2" data-name="Camada 2"><g id="header"><g id="navTop"><g id="Camada_2-2" data-name="Camada 2"><g id="Icones"><path class="cls-1" d="M11,0A11,11,0,1,0,22,11,11,11,0,0,0,11,0Zm.23,17.6h0a6.49,6.49,0,0,1-3.14-.8l-3.49.91.9-3.41a6.62,6.62,0,0,1-.24-6.16,6.46,6.46,0,0,1,4.4-3.53,6.59,6.59,0,1,1,1.57,13Z"/><path class="cls-1" d="M8.17,6.4a4,4,0,0,0-1,.81,5.66,5.66,0,0,0-.6,6.73l.13.21-.56,2,2.08-.54.62.36a3.61,3.61,0,0,0,1.87.52h1.1a4.53,4.53,0,0,0,3.75-1.94,5.71,5.71,0,0,0-.46-7.4A5.65,5.65,0,0,0,8.17,6.4Zm6.28,6.8a1.67,1.67,0,0,1-1.1.78,2.12,2.12,0,0,1-1-.07,6.08,6.08,0,0,1-.93-.34,7.42,7.42,0,0,1-2.82-2.48,3.2,3.2,0,0,1-.67-1.7A1.87,1.87,0,0,1,8.47,8a.62.62,0,0,1,.44-.21h.32c.1,0,.23,0,.37.27a13.25,13.25,0,0,1,.51,1.23.37.37,0,0,1,0,.29c0,.1-.24.34-.41.56s-.17.17-.07.33a4.81,4.81,0,0,0,.91,1.1,4.63,4.63,0,0,0,1.32.82.35.35,0,0,0,.36,0,4.61,4.61,0,0,0,.52-.64c.11-.16.22-.14.37-.09s1,.45,1.1.54a.8.8,0,0,1,.32.19A1.43,1.43,0,0,1,14.45,13.2Z"/></g></g></g></g></g></svg>